<svg width="138" height="35" viewBox="0 0 138 35" fill="none" xmlns="http://www.w3.org/2000/svg">
<g clip-path="url(#clip0_2851_9764)">
<path d="M28.7263 4.43117C28.717 4.42342 28.7064 4.41438 28.6958 4.40664C25.6748 1.95934 21.7735 0.5 17.5494 0.5C7.89433 0.5 0 8.22287 0 17.6995C0 25.9248 5.8985 32.8005 13.7703 34.4703C13.8048 34.4768 13.8393 34.4806 13.8752 34.4806C13.9748 34.4806 14.0677 34.4535 14.146 34.4057C14.2974 34.3166 14.3983 34.1526 14.3983 33.9666C14.3983 33.9602 14.3983 33.9537 14.397 33.9473C14.3944 33.8659 14.3731 33.7897 14.3359 33.7225L10.3416 26.4917L6.87185 20.2101L6.836 20.1455C6.836 20.1455 6.83068 20.1365 6.82936 20.1313C6.75101 19.988 6.70719 19.8227 6.70719 19.6483C6.70719 19.0814 7.17594 18.6203 7.75357 18.6203H10.0946C11.6058 18.6203 12.9217 19.4404 13.6056 20.6531C13.6202 20.6763 13.6322 20.6996 13.6441 20.7241L16.7315 26.3135C16.9081 26.6338 17.2546 26.8507 17.6517 26.8507C18.0487 26.8507 18.3953 26.6351 18.5719 26.3135L29.2137 6.99083C29.219 6.98308 29.223 6.97533 29.2269 6.96629C29.3836 6.6783 29.4713 6.35027 29.4713 6.00158C29.4713 5.37135 29.1818 4.80699 28.7263 4.42988V4.43117ZM34.4084 12.5738C34.4044 12.5608 34.4017 12.5492 34.3978 12.5376C34.3924 12.5208 34.3871 12.5053 34.3818 12.4898C34.2358 12.0972 33.8507 11.8157 33.3992 11.8157C33.0008 11.8157 32.6556 12.0326 32.4789 12.3529L20.7762 33.7406C20.7364 33.813 20.7125 33.8969 20.7125 33.9847C20.7125 34.2688 20.9475 34.4987 21.2357 34.4987C21.2715 34.4987 21.3074 34.4948 21.3406 34.4884C21.3857 34.4793 21.4295 34.4703 21.4734 34.4613C29.3252 32.7759 35.2025 25.9106 35.2025 17.6982C35.2025 15.9135 34.9249 14.1907 34.4084 12.5725V12.5738Z" fill="url(#paint0_linear_2851_9764)"/>
<path d="M72.2481 10.6924C68.1024 10.6924 64.9766 13.6033 64.9766 17.4635C64.9766 21.3236 68.1701 24.3262 72.2481 24.3262C76.3261 24.3262 79.5196 21.312 79.5196 17.4635C79.5196 13.6149 76.3938 10.6924 72.2481 10.6924ZM72.1551 21.3107C70.5378 21.3107 68.7956 20.1071 68.7956 17.4647C68.7956 14.8224 70.5364 13.6188 72.1551 13.6188C73.0395 13.6188 73.8681 13.9791 74.4869 14.6326C75.1588 15.3429 75.5147 16.3231 75.5147 17.4647C75.5147 18.6064 75.1588 19.5866 74.4869 20.2969C73.8681 20.9504 73.0409 21.3107 72.1551 21.3107Z" fill="#1D5EBC"/>
<path d="M95.173 13.8895C96.5142 13.8895 97.3162 14.8194 97.3162 16.3756V24.2186C97.3162 24.2754 97.364 24.3206 97.4211 24.3206H101.214C101.271 24.3206 101.317 24.2754 101.317 24.2198V15.8009C101.317 12.7828 98.9774 10.6751 95.6272 10.6751C93.9699 10.6751 92.4986 11.4332 91.5904 12.7556C91.5346 12.837 91.4403 12.8861 91.3394 12.8822C91.2385 12.8796 91.1482 12.828 91.0964 12.744C90.2333 11.3505 88.8761 10.6738 86.9507 10.6738C85.2696 10.6738 84.3188 11.5146 83.8182 12.2197C83.7757 12.2804 83.7173 12.3282 83.6509 12.3579C83.5832 12.3889 83.5035 12.3902 83.4344 12.3618L83.4278 12.3592C83.368 12.3346 83.3189 12.2933 83.2844 12.2391L82.5408 11.0483C82.5288 11.029 82.4996 11.0135 82.4757 11.0135H80.7494C80.691 11.0135 80.6445 11.0587 80.6445 11.1155V24.2173C80.6445 24.2741 80.6923 24.3193 80.7494 24.3193H84.5419C84.599 24.3193 84.6455 24.2741 84.6455 24.2186V16.5654C84.6455 15.0389 85.6082 13.8882 86.8856 13.8882C88.1631 13.8882 89.0289 14.8775 89.0289 16.4699V24.2186C89.0289 24.2741 89.0753 24.3193 89.1324 24.3193H92.9262C92.9833 24.3193 93.0298 24.2741 93.0298 24.2186V16.2787C93.1267 14.8465 93.9885 13.8882 95.173 13.8882V13.8895Z" fill="#1D5EBC"/>
<path d="M102.795 11.018C102.742 11.018 102.698 11.0606 102.698 11.1136L102.691 31.2382C102.691 31.2912 102.735 31.3338 102.788 31.3338L106.439 31.3312C106.492 31.3312 106.536 31.2886 106.536 31.2356L106.525 23.4843C106.525 23.3668 106.597 23.2648 106.707 23.2222C106.817 23.1796 106.942 23.2067 107.023 23.2932C107.686 23.9932 108.982 24.3509 110.772 24.3225C112.196 24.3005 113.67 23.6006 114.812 22.3982C116.058 21.0887 116.743 19.3491 116.743 17.4972C116.743 13.5428 114.056 10.6719 110.353 10.6719C108.907 10.6719 106.91 11.0438 106.031 12.2771C105.983 12.3456 105.906 12.3882 105.823 12.396C105.739 12.4037 105.655 12.3753 105.594 12.3159L104.558 11.0503C104.54 11.0296 104.513 11.018 104.485 11.018H102.794H102.795ZM110.02 21.2798C108.059 21.2798 106.635 19.7275 106.635 17.5889V17.4972C106.635 14.8342 108.389 13.6215 110.02 13.6215C112.013 13.6215 113.405 15.2152 113.405 17.4972C113.405 19.9548 111.661 21.2811 110.02 21.2811V21.2798Z" fill="#1D5EBC"/>
<path d="M117.959 3.66699C117.906 3.66699 117.863 3.70961 117.863 3.75998V24.2307C117.863 24.2824 117.906 24.3237 117.959 24.3237H121.6C121.653 24.3237 121.696 24.2811 121.696 24.2307V3.76127C121.696 3.70961 121.653 3.66828 121.6 3.66828H117.959V3.66699Z" fill="#1D5EBC"/>
<path d="M123.064 10.6598C122.975 10.6598 122.895 10.7037 122.847 10.7773C122.801 10.8509 122.795 10.9413 122.835 11.0188L128.424 22.1382C128.485 22.2596 128.485 22.3991 128.427 22.5205L124.198 31.1848C124.183 31.2145 124.186 31.2468 124.203 31.2752C124.22 31.3036 124.251 31.3191 124.284 31.3191H128.123C128.221 31.3191 128.312 31.2623 128.353 31.1758L137.969 11.0137C138.006 10.9362 138 10.8458 137.953 10.7735C137.906 10.6998 137.827 10.6572 137.738 10.6572H134.312C134.215 10.6572 134.125 10.7128 134.083 10.7993L130.958 17.2372C130.884 17.3896 130.73 17.4851 130.557 17.4864C130.384 17.4864 130.232 17.3921 130.156 17.2397L126.988 10.798C126.945 10.7128 126.856 10.6572 126.759 10.6572H123.065L123.064 10.6598Z" fill="#1D5EBC"/>
<path d="M38.2987 10.6702C38.2641 10.6702 38.2349 10.6857 38.2163 10.7141C38.1977 10.7413 38.1938 10.7748 38.207 10.8058L43.9064 24.2679C43.9223 24.3041 43.9581 24.3286 43.998 24.3286H47.1863C47.2261 24.3286 47.2633 24.3054 47.2779 24.2679L52.9493 10.8058C52.9626 10.7748 52.9586 10.7413 52.94 10.7141C52.9214 10.687 52.8909 10.6702 52.8577 10.6702H48.9006C48.8315 10.6702 48.7691 10.7129 48.7452 10.7761L45.8013 18.7173C45.7681 18.8051 45.6857 18.8632 45.5901 18.8632C45.4945 18.8632 45.4122 18.8064 45.379 18.7186L42.3819 10.7748C42.358 10.7116 42.2956 10.6689 42.2279 10.6689H38.2987V10.6702Z" fill="#1D5EBC"/>
<path d="M62.8573 19.9475L62.7617 20.034C62.8016 20.0004 62.8401 19.9655 62.8786 19.9307C62.8719 19.9358 62.864 19.941 62.8573 19.9462V19.9475Z" fill="#1D5EBC"/>
<path d="M59.5247 10.6924C55.4693 10.6924 52.293 13.6885 52.293 17.5138C52.293 21.3391 55.5609 24.3353 59.4304 24.3353C61.6971 24.3353 63.4274 23.6237 64.8774 22.0959C64.9106 22.061 64.9106 22.0042 64.8774 21.968L63.0542 20.0154C63.0263 19.9882 62.9772 19.9831 62.94 20.0063C62.9028 20.0399 62.8657 20.0722 62.8271 20.1045L62.7807 20.1471H62.7793C62.0995 20.7089 61.0013 21.2952 59.9005 21.2952C58.0799 21.2952 56.2355 19.996 56.2355 17.5138C56.2355 15.0317 58.0786 13.6408 59.9005 13.6408C61.1766 13.6408 62.3876 14.6959 62.8484 15.2538C62.867 15.2757 62.8922 15.2887 62.9201 15.2899C62.948 15.2912 62.9745 15.2809 62.9931 15.2602L64.969 13.2404C65.0049 13.2043 65.0049 13.1487 64.9704 13.11C63.511 11.506 61.6785 10.6924 59.5234 10.6924H59.5247Z" fill="#1D5EBC"/>
</g>
<defs>
<linearGradient id="paint0_linear_2851_9764" x1="23.7494" y1="5.63739" x2="8.49326" y2="37.3096" gradientUnits="userSpaceOnUse">
<stop stop-color="#1E5DD3"/>
<stop offset="1" stop-color="#091C3F"/>
</linearGradient>
<clipPath id="clip0_2851_9764">
<rect width="138" height="34" fill="white" transform="translate(0 0.5)"/>
</clipPath>
</defs>
</svg>
